<svg t="1750325527103" class="icon" viewBox="0 0 1024 1024" version="1.1"
    xmlns="http://www.w3.org/2000/svg" p-id="4616" width="200" height="200">
    <path d="M175.348135 494.302886h32.596745l-16.420002-53.152156-16.176743 53.152156z" p-id="4617"></path>
    <path
        d="M188.362507 139.752465c-51.57097 0-93.411569 41.840599-93.411569 93.411569v560.469414c0 51.57097 41.840599 93.411569 93.411569 93.411569s93.411569-41.840599 93.411569-93.411569V233.164034c0-51.57097-41.840599-93.411569-93.411569-93.411569z m36.367265 404.783466l-7.419409-31.13719H165.496134l-7.17615 31.13719h-46.705784l55.584749-155.685949h49.868155l55.584749 155.685949H224.729772zM476.016623 496.735479h-23.231263V526.656372h23.231263c7.905927 0 13.500891-1.459556 16.663262-4.135408 3.162371-2.797482 4.865186-6.568001 4.865186-11.189927 0-4.378667-1.581185-7.905927-4.743557-10.581779-3.162371-2.675852-8.757335-4.013778-16.784891-4.013779z"
        p-id="4618"></path>
    <path
        d="M468.597214 139.752465c-51.57097 0-93.411569 41.840599-93.411569 93.411569v560.469414c0 51.57097 41.840599 93.411569 93.411569 93.411569s93.411569-41.840599 93.41157-93.411569V233.164034c0-51.57097-41.840599-93.411569-93.41157-93.411569z m67.261195 353.212495c4.986816 6.203112 7.541038 13.987409 7.541039 23.474522 0 7.662668-1.824445 14.595558-5.351705 20.67704-3.52726 6.081482-8.514075 10.946668-14.595558 14.473928-3.770519 2.189334-9.608742-3.040741-17.393039-2.067704-10.21689 1.337926-17.028151-4.986816-20.433781-4.986815H406.322835V419.987172h85.992161c14.230669 0 25.177337-1.094667 32.840004 5.838223 7.541038 7.05452 11.433187 13.500891 11.433187 23.839411 0 8.757335-2.797482 15.082076-8.149186 21.285188-3.648889 4.135408-8.878964 6.93289-15.933484 9.243853 10.581779 2.675852 18.487706 6.568001 23.352892 12.771113z"
        p-id="4619"></path>
    <path
        d="M487.571439 464.868512c2.797482-2.432593 4.257038-5.959853 4.257038-10.703409 0-4.257038-1.459556-7.662668-4.257038-10.095261-2.797482-2.432593-7.662668-3.648889-14.595557-3.648889h-20.190522v27.974818h19.947262c7.176149 0.243259 12.041335-1.094667 14.838817-3.527259zM927.140985 769.550778L815.849857 220.149661c-10.21689-50.597933-59.476897-83.194679-110.07483-72.977788-50.597933 10.21689-83.316308 59.476897-72.977789 110.074831l111.412757 549.279487c10.21689 50.597933 59.476897 83.194679 110.074831 72.977788 50.476304-10.21689 83.194679-59.476897 72.856159-109.953201z m-80.640457-261.017223c-4.013778 8.635705-9.730372 15.690224-17.271409 21.406818-7.541038 5.594964-17.757928 9.852001-30.650672 12.771113-15.690224 3.52726-28.947856 4.135408-39.894524 1.824445-10.946668-2.310963-21.285188-8.392446-31.13719-18.366077-9.730372-9.852001-16.663262-23.717781-20.55541-41.718969-5.351704-23.839411-3.040741-43.543414 6.689631-59.233638 9.852001-15.690224 26.393633-26.150374 49.624896-31.25882 18.244447-4.135408 33.326523-3.52726 45.246228 1.459556 12.041335 4.986816 22.379855 14.595558 30.772301 28.704597l-37.340301 17.514669c-2.310963-4.135408-4.500297-7.05452-6.446372-8.635705-3.284-2.797482-6.93289-4.743556-10.946668-5.838223-4.013778-0.973037-8.270816-0.973037-12.649483 0-10.095261 2.189334-16.906521 8.027557-20.433781 17.39304-2.797482 6.93289-2.675852 16.906521 0.243259 29.799263 3.52726 15.933484 8.392446 26.393633 14.595558 31.25882 6.203112 4.743556 13.62252 6.203112 22.501485 4.257037 8.514075-1.946074 14.473928-5.716593 17.757928-11.433187 3.284-5.716593 4.865186-13.500891 4.743556-22.988003l41.718969 3.040741c-0.486519 11.433187-2.554223 21.528448-6.568001 30.042523z"
        p-id="4620"></path>
</svg>