<svg xmlns="http://www.w3.org/2000/svg" width="30" height="30" viewBox="0 0 30 30" fill="none">
    <path
        d="M23.4044 0H6.69075C2.99555 0 0 2.98608 0 6.6696V23.3304C0 27.0139 2.99555 30 6.69075 30H23.4044C27.0996 30 30.0952 27.0139 30.0952 23.3304V6.6696C30.0952 2.98608 27.0996 0 23.4044 0Z"
        fill="url(#paint0_linear_11216_1189)" />
    <path
        d="M7.6251 11.5862C13.117 12.2584 17.0353 17.2276 16.3962 22.7022C16.3962 22.7197 16.3962 22.7417 16.3918 22.7593C16.3918 22.7769 16.3918 22.79 16.383 22.8076C16.2684 23.7127 16.0348 24.5739 15.7042 25.3779C13.5181 25.1099 11.5831 24.1653 10.0845 22.7725C10.1947 22.5044 10.2917 22.2276 10.3754 21.9464C10.5429 21.4016 10.6619 20.8305 10.7369 20.2461C10.825 19.5343 10.8338 18.8313 10.7721 18.1459C10.5518 15.6327 9.38374 13.3392 7.59425 11.6784C7.60306 11.6477 7.61628 11.6213 7.62951 11.5906L7.6251 11.5862Z"
        fill="url(#paint1_linear_11216_1189)" />
    <path
        d="M22.4699 18.414C16.978 17.7417 13.0597 12.7725 13.6988 7.29799C13.6988 7.28041 13.6988 7.25845 13.7032 7.24087C13.7032 7.2233 13.7032 7.21012 13.712 7.19254C13.8266 6.28744 14.0602 5.42628 14.3908 4.62224C16.5769 4.89026 18.5119 5.8349 20.0105 7.22769C19.9003 7.4957 19.8033 7.77251 19.7196 8.0537C19.5521 8.59852 19.4331 9.16969 19.3581 9.75405C19.27 10.4658 19.2612 11.1688 19.3229 11.8542C19.5433 14.3674 20.7113 16.6609 22.5008 18.3217C22.492 18.3525 22.4787 18.3788 22.4655 18.4096L22.4699 18.414Z"
        fill="url(#paint2_linear_11216_1189)" />
    <path
        d="M22.4699 18.414C16.978 17.7418 13.0597 12.7725 13.6988 7.29802C14.9197 9.42017 16.9031 11.0766 19.3229 11.8587C19.9267 12.0564 20.5614 12.197 21.2138 12.2761C21.8088 12.3464 22.3994 12.3683 22.9768 12.3376C23.3691 12.3156 23.7525 12.2717 24.136 12.2101C25.1409 14.0028 25.6037 16.1161 25.3393 18.313C25.3393 18.3305 25.3393 18.3437 25.3305 18.3613C24.4533 18.5063 23.5454 18.5326 22.6198 18.436C22.5581 18.4272 22.5096 18.4228 22.4699 18.4184V18.414Z"
        fill="white" />
    <path
        d="M7.6251 11.5862C13.117 12.2584 17.0353 17.2277 16.3962 22.7022C15.1753 20.58 13.1919 18.9236 10.7721 18.1416C10.1683 17.9438 9.53359 17.8032 8.88127 17.7242C8.28624 17.6539 7.69562 17.6319 7.11822 17.6627C6.72594 17.6846 6.34248 17.7286 5.95902 17.7901C4.95408 15.9975 4.49129 13.8841 4.75574 11.6873C4.75574 11.6697 4.75574 11.6565 4.76456 11.6389C5.64167 11.4939 6.54964 11.4676 7.47524 11.5642C7.52813 11.5686 7.5722 11.573 7.6251 11.5818V11.5862Z"
        fill="white" />
    <path
        d="M53.3938 9.34668L49.1801 15.9592L53.4202 23.4416H48.6909L45.8083 18.5075L42.7362 23.4416H38.0068L42.4673 15.9592L38.117 9.34668H42.7935L45.8391 14.0611L48.6115 9.34668H53.3982H53.3938Z"
        fill="white" />
    <path
        d="M58.9386 9.34665L59.6746 10.6999C60.327 9.5883 61.6316 8.80183 63.5621 8.80183C65.6822 8.80183 67.2337 9.64103 68.102 11.214C68.8072 9.91343 70.3322 8.80183 72.5889 8.80183C77.4285 8.80183 78.0015 12.9758 78.0015 15.2825V23.4416H73.7041V15.3352C73.7041 13.7359 72.752 12.7078 71.2843 12.7078C70.0325 12.7078 68.9747 14.0347 68.9747 15.5549V23.4416H64.6773V15.3352C64.6773 13.7359 63.7517 12.7078 62.3368 12.7078C61.0322 12.7078 59.8906 14.0347 59.8906 15.5549V23.4416H55.5932V9.34665H58.9386Z"
        fill="white" />
    <path
        d="M82.3782 2.27285C83.8459 2.27285 85.0712 3.52065 85.0712 4.98375C85.0712 6.44684 83.8459 7.69464 82.3782 7.69464C80.9104 7.69464 79.6322 6.4732 79.6322 4.98375C79.6322 3.49429 80.8575 2.27285 82.3782 2.27285ZM84.4982 9.34666V23.4416H80.2008V9.34666H84.4982Z"
        fill="white" />
    <path
        d="M90.3163 9.34665L91.0524 10.6999C91.7047 9.5883 93.0094 8.80183 94.9399 8.80183C98.4219 8.80183 100.352 11.0514 100.352 15.1463V23.4416H96.055V15.3352C96.055 13.6524 95.2132 12.7078 93.7146 12.7078C92.4099 12.7078 91.2684 14.0347 91.2684 15.5549V23.4416H86.9709V9.34665H90.3163Z"
        fill="white" />
    <path
        d="M101.983 16.2843C101.983 12.1366 105.218 8.80185 109.243 8.80185C110.794 8.80185 112.235 9.31591 113.43 10.1859V3.70958L117.727 5.17267V23.4416H114.492L113.73 22.1147C112.504 23.1428 110.931 23.7403 109.243 23.7403C105.218 23.7403 101.983 20.4055 101.983 16.2887V16.2843ZM109.895 19.8607C111.936 19.8607 113.566 18.2614 113.566 16.2008C113.566 14.1402 111.936 12.5672 109.895 12.5672C107.854 12.5672 106.25 14.1929 106.25 16.2008C106.25 18.2087 107.854 19.8607 109.895 19.8607Z"
        fill="white" />
    <defs>
        <linearGradient id="paint0_linear_11216_1189" x1="30.5668" y1="-1.31371" x2="3.8271"
            y2="26.9695" gradientUnits="userSpaceOnUse">
            <stop offset="0.01" stop-color="#E9913E" />
            <stop offset="1" stop-color="#F20000" />
        </linearGradient>
        <linearGradient id="paint1_linear_11216_1189" x1="7.5678" y1="26.1424" x2="14.0063"
            y2="14.0209" gradientUnits="userSpaceOnUse">
            <stop offset="0.19" stop-color="white" />
            <stop offset="0.4" stop-color="#FDFCFC" stop-opacity="0.99" />
            <stop offset="0.51" stop-color="#F9F4F5" stop-opacity="0.97" />
            <stop offset="0.6" stop-color="#F3E7E9" stop-opacity="0.93" />
            <stop offset="0.67" stop-color="#E9D4D7" stop-opacity="0.88" />
            <stop offset="0.74" stop-color="#DDBBC0" stop-opacity="0.81" />
            <stop offset="0.81" stop-color="#CE9CA4" stop-opacity="0.73" />
            <stop offset="0.87" stop-color="#BC7883" stop-opacity="0.63" />
            <stop offset="0.92" stop-color="#A84E5C" stop-opacity="0.51" />
            <stop offset="0.97" stop-color="#911F31" stop-opacity="0.38" />
            <stop offset="1" stop-color="#830317" stop-opacity="0.3" />
        </linearGradient>
        <linearGradient id="paint2_linear_11216_1189" x1="24.709" y1="-4.96915" x2="15.0088"
            y2="20.662" gradientUnits="userSpaceOnUse">
            <stop offset="0.19" stop-color="white" />
            <stop offset="0.4" stop-color="#FDFCFC" stop-opacity="0.99" />
            <stop offset="0.51" stop-color="#F9F4F5" stop-opacity="0.97" />
            <stop offset="0.6" stop-color="#F3E7E9" stop-opacity="0.93" />
            <stop offset="0.67" stop-color="#E9D4D7" stop-opacity="0.88" />
            <stop offset="0.74" stop-color="#DDBBC0" stop-opacity="0.81" />
            <stop offset="0.81" stop-color="#CE9CA4" stop-opacity="0.73" />
            <stop offset="0.87" stop-color="#BC7883" stop-opacity="0.63" />
            <stop offset="0.92" stop-color="#A84E5C" stop-opacity="0.51" />
            <stop offset="0.97" stop-color="#911F31" stop-opacity="0.38" />
            <stop offset="1" stop-color="#830317" stop-opacity="0.3" />
        </linearGradient>
    </defs>
    <script xmlns="" />
</svg>